<?xml version="1.0" encoding="iso-8859-1"?>
<svg xmlns="http://www.w3.org/2000/svg" version="1.1" viewBox="0 0 250 1000">

  <defs>
    <filter id="f1" x="0" y="0">
      <feGaussianBlur in="SourceGraphic" stdDeviation="1.5" />
    </filter>
    <linearGradient id="grad1" x1="0%" y1="0%" x2="100%" y2="0%">
      <stop offset="0%" style="stop-color:rgb(236,231,209);stop-opacity:1" />
      <stop offset="100%" style="stop-color:rgb(216,206,159);stop-opacity:1" />
    </linearGradient>
  </defs>

	<g fill="rgb(29,157,242)">
		
		<path d="M100 0 l100 200 l0 800 l-200 0 -0 -800 Z" transform="translate(40,20)" fill = "black" fill-opacity="0.4" filter="url(#f1)"/>
				
		<path d="M100 0 l100 200 l0 800 l-200 0 -0 -800 Z" fill = "white"/>
		
		<path d="M100 0 l50 100 l-100 0 Z"/>

		<path d="M000 200 q 25 -20 50 0 q 50 -20 100 0 q 25 -20 50 0 l-50 -100 l-100 0 Z" fill="url(#grad1)"/>
		
		<path d="M000 200 q 25 -20 50 0 l0 800 l -50 0 Z" fill-opacity="0.6"/>				
		<path d="M50 200 q 50 -20 100 0 l0 800 l -100 0 Z" fill-opacity="0.8"/>
		<path d="M150 200 q 25 -20 50 0 l0 800 l -50 0 Z"/>		
	</g>
	
</svg>